PathFileType	4	(X/Y/Z)	D:\TRACE\spotREDO_2-26-24\spot_Both_Motion_1_6-v60.trc
DataRate	CameraRate	NumFrames	NumMarkers	Units	OrigDataRate	OrigDataStartFrame	OrigNumFrames
100.00	100.00	      35	9	mm	100.00	1751	      7000
Frame#	Time	front left toe			Front right toe			aft left toe			aft right toe			Arm			FL body			FR body			AL Body			AR Body			
		X1	Y1	Z1	X2	Y2	Z2	X3	Y3	Z3	X4	Y4	Z4	X5	Y5	Z5	X6	Y6	Z6	X7	Y7	Z7	X8	Y8	Z8	X9	Y9	Z9	

1751	17.500	-178.29237	39.69893	-459.27975	273.23608	38.57326	-437.70462	-117.70110	14.03577	129.05185	242.20160	16.96589	149.75215	-30.34873	703.16913	-801.79694	-23.65308	590.29620	-520.80695	131.73346	593.83221	-525.89929	0.98764	559.25085	362.54471	142.13251	563.13208	359.61618	
1752	17.510	-178.55905	39.77874	-459.28113	272.90079	38.49504	-437.80408	-118.06049	14.09253	128.97302	241.90230	16.89885	149.80710	-30.31317	703.50256	-801.83258	-23.14283	590.55127	-521.14398	131.96468	594.25226	-526.23529	1.44539	559.01959	362.10135	142.55840	563.06482	359.05347	
1753	17.520	-178.78882	39.89194	-459.22638	272.43884	38.40692	-438.00165	-118.59466	13.94155	129.19327	241.07889	16.65019	149.74681	-30.34824	703.66522	-801.80511	-22.77298	590.82092	-521.26764	132.25752	594.74127	-526.47021	2.01802	558.76324	361.85565	143.10150	562.99597	358.74686	
1754	17.530	-179.21971	40.15243	-459.23669	272.24390	38.55526	-437.85300	-119.01492	13.97752	129.19774	240.44882	16.46133	149.62498	-30.36544	703.85284	-801.70819	-22.57581	591.16479	-521.41486	132.64305	595.19415	-526.95313	2.64183	558.46088	361.61725	143.83923	562.62372	358.30289	
1755	17.540	-179.58884	40.16265	-459.34436	271.73663	38.67568	-438.12231	-119.32731	13.96860	129.15015	240.08644	16.38349	149.53479	-30.16939	704.32581	-801.69403	-22.35848	591.46313	-521.87402	132.82397	595.38525	-527.27594	3.23497	558.31250	361.29422	144.32945	562.67395	358.08936	
1756	17.550	-180.47913	40.21214	-459.24200	271.16403	39.30827	-438.32492	-119.77022	13.87294	129.32750	239.84303	16.60626	149.52286	-29.77874	704.99554	-801.32544	-22.10228	591.11035	-522.29175	132.90227	595.27094	-527.70453	3.78376	558.63135	361.06229	144.63675	563.00543	357.64740	
1757	17.560	-181.35457	40.18794	-459.00323	269.92642	39.31437	-438.56598	-120.30579	14.24286	129.34537	239.65398	16.84252	149.71503	-28.85132	705.71063	-800.82660	-21.99717	590.21228	-522.63647	133.12610	594.80176	-528.05438	4.19646	559.11969	360.69046	145.37346	563.48871	357.31955	
1758	17.570	-181.44807	40.10351	-458.97018	269.76559	39.27819	-438.21436	-120.92998	14.43198	129.33627	239.22110	16.84400	149.72037	-27.56802	706.96777	-800.23022	-21.67126	589.29578	-522.97754	133.12349	594.18903	-528.43164	4.80428	559.21478	360.24979	146.15886	564.09741	357.04547	
1759	17.580	-181.90482	40.07228	-458.96655	269.71454	39.22720	-437.98291	-121.31461	14.52029	129.32002	238.58070	16.69521	149.59396	-24.95420	708.84375	-799.20251	-21.96597	588.64612	-523.20593	133.03885	593.55255	-528.98108	5.44476	559.20117	359.91287	146.82127	564.41748	356.76294	
1760	17.590	-182.61797	40.12715	-458.89502	269.15479	39.17645	-437.93900	-121.69457	14.69240	129.31479	237.97643	16.39834	149.49028	-21.63054	711.77588	-797.17963	-22.25878	587.98444	-523.48621	132.72295	593.30865	-529.52161	6.13300	559.14197	359.78339	147.11716	564.64642	356.21796	
1761	17.600	-183.22052	40.10722	-458.77942	268.48743	39.28981	-438.11230	-121.83112	14.61819	129.47150	237.52036	16.17964	149.43031	-17.53229	715.88251	-794.97223	-22.45021	587.29877	-523.68561	132.38985	593.11603	-529.90680	6.75032	558.91669	359.54745	147.84833	564.62494	355.58990	
1762	17.610	-183.85172	40.29940	-458.68292	267.92233	39.40268	-438.20200	-122.10336	14.57281	129.50769	237.17313	16.00917	149.41698	-12.50827	720.49554	-792.45258	-22.68900	586.87189	-523.90253	132.38629	593.00653	-530.10260	7.55189	558.59192	359.21970	148.46989	564.42120	355.26904	
1763	17.620	-184.34715	40.48292	-458.65646	267.06470	39.34793	-438.27057	-122.89423	14.66748	129.53828	236.56667	15.29071	148.99176	-7.40006	725.78461	-789.41833	-22.67396	586.73602	-524.08588	132.47911	592.85382	-530.20471	8.01868	558.26965	358.99115	149.03662	564.16431	354.94620	
1764	17.630	-184.66397	40.68756	-458.63129	266.87836	39.40977	-438.11319	-123.71212	14.75883	129.54688	235.86011	15.03805	148.93291	-2.27243	730.89398	-785.90479	-22.57578	586.80566	-524.22064	132.71408	592.77026	-530.31665	8.34863	557.86328	358.74060	149.33377	563.78503	354.87347	
1765	17.640	-184.95682	40.91299	-458.68369	266.70026	39.45201	-437.87643	-124.04471	14.61305	129.54959	235.13318	14.90629	149.02455	2.52241	735.82538	-782.53607	-21.94869	587.22235	-524.29089	133.23183	592.94214	-530.42511	8.39218	557.60687	358.68671	149.40175	563.47076	354.94574	
1766	17.650	-185.27969	41.26672	-458.85446	266.22528	39.34281	-437.87381	-124.46246	14.35881	129.55167	234.63342	14.96184	149.20123	7.28801	740.20227	-778.69775	-20.70074	588.02161	-524.37286	134.28581	593.39398	-530.31775	8.34640	557.24561	358.68063	149.37358	562.76434	354.92593	
1767	17.660	-185.82468	41.82370	-458.98752	265.60791	39.28632	-437.62506	-125.27993	14.31369	129.47856	233.88675	15.12725	149.48602	11.06617	744.05255	-774.76843	-19.58464	589.14984	-524.31183	135.53967	594.15961	-529.93811	7.78955	556.54071	358.56284	149.00197	561.69415	355.20874	
1768	17.670	-186.07701	42.36300	-459.34445	265.19876	39.06823	-437.43661	-126.22279	14.24836	129.48718	233.51196	15.16145	149.66980	13.70330	746.94043	-771.16162	-17.68439	590.42810	-524.29004	137.37534	595.22168	-529.60742	7.32879	555.90173	358.63651	148.76749	560.98517	355.71722	
1769	17.680	-186.41377	43.02047	-459.69214	265.03018	39.04075	-437.09595	-127.03784	14.17252	129.35316	232.40741	15.28810	150.08691	15.14628	748.75977	-767.98773	-15.60173	591.87274	-524.12140	139.71037	596.25287	-529.00488	6.69240	555.27875	358.66278	147.83681	559.85577	356.19736	
1770	17.690	-186.48785	43.29542	-460.03070	264.67188	38.77622	-436.95718	-127.77020	13.88198	129.29660	231.96518	15.18150	150.28293	16.22562	749.75024	-764.95380	-13.13156	593.36078	-524.07269	141.70331	597.48322	-528.34143	6.10590	554.44635	358.98608	147.36946	558.93274	356.89590	
1771	17.700	-186.42296	43.71712	-460.38855	264.06897	38.48920	-436.79669	-128.38988	13.80436	129.27429	231.55772	15.24968	150.60918	15.93487	750.07727	-762.62433	-10.97066	595.09106	-523.68390	144.34731	598.79633	-527.38873	5.89259	553.91113	359.31808	146.97121	557.80896	357.52066	
1772	17.710	-186.42178	44.25932	-460.93298	263.70941	38.29663	-436.92166	-129.06772	13.89523	129.28737	230.49905	15.11630	150.81862	15.28493	749.58704	-760.87848	-8.60176	596.66821	-523.21130	146.33041	599.98163	-526.63599	5.91940	553.33588	359.80093	147.00113	557.46918	358.39822	
1773	17.720	-186.62344	44.45497	-461.00003	263.11920	38.23151	-436.32593	-129.41924	14.08823	129.26852	230.42264	15.17973	151.10196	13.69144	748.80054	-759.74359	-6.66244	597.85034	-522.59888	148.28990	601.19501	-525.76782	6.32149	552.96289	360.35629	147.65179	556.60980	359.19577	
1774	17.730	-187.17967	44.54321	-461.02325	262.61221	38.09732	-436.39389	-130.34351	14.47161	129.31262	229.95476	14.91241	151.11967	12.31256	747.25250	-759.21857	-5.62824	599.08612	-521.62939	149.96379	602.17627	-524.91125	7.45771	552.63489	360.96719	148.79846	556.28131	359.92001	
1775	17.740	-187.81261	44.52409	-461.05237	262.20767	38.27408	-436.35565	-130.61073	14.56597	129.36285	228.99220	14.52669	150.98416	10.64839	745.90033	-759.13879	-4.35029	599.76526	-520.83923	151.09204	602.83289	-523.96948	8.83818	552.67310	361.83224	149.85614	556.16779	360.55383	
1776	17.750	-189.10240	44.35654	-460.98068	261.31528	38.41282	-436.42407	-131.05884	14.95043	129.30145	228.51355	14.31844	151.02362	9.66578	744.52875	-759.54089	-3.75616	600.36078	-519.86005	151.34073	603.52277	-523.43207	10.76997	552.63452	362.93527	152.06802	555.97498	361.45978	
1777	17.760	-190.25902	44.10981	-460.88330	260.42236	38.35934	-436.64600	-131.40605	15.23394	129.29427	227.97441	14.15534	150.98128	8.84352	743.08136	-760.45477	-3.62781	600.89136	-518.90332	151.59058	603.95184	-522.61420	12.88342	552.73816	363.75580	154.05394	556.31506	362.16760	
1778	17.770	-190.82909	43.91420	-460.29617	259.66544	38.30717	-437.01740	-131.86322	15.54370	129.43112	227.41908	13.96890	150.92418	8.49524	742.37555	-761.45355	-3.66792	601.02216	-517.65131	151.71014	604.26715	-521.86755	15.16364	552.75891	364.83664	156.53725	556.42340	362.80798	
1779	17.780	-191.86249	43.93250	-459.98242	259.10532	38.25525	-437.06052	-132.45160	15.82526	129.49449	227.02432	13.85749	150.91307	8.32710	741.57288	-762.84772	-3.49782	601.03656	-516.82019	151.49788	604.51685	-521.16083	17.57036	552.77631	365.92795	158.83403	556.62195	363.39902	
1780	17.790	-192.51088	43.95915	-459.78204	258.13425	38.21575	-437.07214	-132.80649	16.05164	129.55847	226.58849	13.59988	150.81523	8.54172	741.08203	-764.11993	-3.70104	600.81140	-515.41864	151.31664	604.49738	-520.58344	19.70741	552.79608	366.88910	160.82320	556.70587	363.98026	
1781	17.800	-193.21312	43.72605	-459.78784	257.11374	37.77012	-437.53452	-133.31738	16.20234	129.68225	226.03815	13.35974	150.76672	8.47204	740.90869	-765.50165	-3.51044	600.52063	-514.56909	151.62500	604.50208	-519.90479	21.91020	552.55139	367.93219	163.02209	556.73804	364.80884	
1782	17.810	-193.92180	43.70846	-459.58585	256.37589	37.77060	-437.40796	-133.79836	16.34169	129.93175	225.93359	13.48576	150.95522	8.23437	740.91400	-766.65869	-3.13840	600.33301	-513.66174	151.95776	604.43036	-519.22949	23.38319	552.73712	368.79492	164.78029	556.83606	365.54614	
1783	17.820	-194.49452	43.74939	-459.53461	256.10986	37.82771	-437.17215	-134.71248	16.44572	129.84203	225.10265	13.04470	150.91389	8.19943	740.97388	-767.63928	-2.56254	600.02606	-512.82629	152.52771	604.19110	-518.48474	24.79017	552.70825	369.66638	166.22256	556.92786	366.49402	
1784	17.830	-195.14134	44.08043	-459.49820	255.36430	37.42214	-437.20200	-135.31802	16.47368	129.94669	224.08252	12.66274	150.84859	7.70062	741.19580	-768.34302	-1.93269	599.92731	-512.13043	153.52377	603.79413	-517.25946	25.96273	552.50848	370.31454	167.13553	556.66864	366.75412	
1785	17.840	-195.44739	44.13833	-459.59424	254.18327	37.18021	-437.13211	-135.97115	16.57637	130.02693	223.05075	12.48205	150.67258	7.00115	741.64880	-769.12335	-0.76363	599.65778	-511.37573	154.38341	603.92499	-517.12024	26.94029	552.36584	371.03284	167.97816	556.56519	367.72009	
